<svg xmlns="http://www.w3.org/2000/svg" fill="#4e3b2c" viewBox="0 0 24 24">
  <path d="M12 .5C5.7.5.5 5.7.5 12c0 5.1 3.3 9.4 7.8 10.9.6.1.8-.2.8-.6v-2.1c-3.2.7-3.8-1.5-3.8-1.5-.5-1.2-1.2-1.5-1.2-1.5-1-.7.1-.7.1-.7 1.1.1 1.7 1.1 1.7 1.1 1 .1 1.7-.7 1.9-1 .1-.7.4-1.1.7-1.4-2.6-.3-5.3-1.3-5.3-5.9 0-1.3.5-2.3 1.2-3.2-.1-.3-.5-1.5.1-3.1 0 0 1-.3 3.3 1.2a11.6 11.6 0 0 1 6 0C18.5 4.1 19.5 4.4 19.5 4.4c.6 1.6.2 2.8.1 3.1.7.9 1.2 1.9 1.2 3.2 0 4.6-2.7 5.6-5.3 5.9.4.4.8 1 .8 2.1v3.1c0 .4.3.8.8.6A10.5 10.5 0 0 0 23.5 12C23.5 5.7 18.3.5 12 .5z"/>
</svg>