<svg xmlns="http://www.w3.org/2000/svg" viewBox="0 0 24 24" fill="#4e3b2c">
  <path d="M12 2.2c3.2 0 3.6 0 4.9.1 1.2.1 1.9.3 2.4.6.6.3 1 .7 1.4 1.4.3.5.5 1.2.6 2.4.1 1.3.1 1.7.1 4.9s0 3.6-.1 4.9c-.1 1.2-.3 1.9-.6 2.4-.3.6-.7 1-1.4 1.4-.5.3-1.2.5-2.4.6-1.3.1-1.7.1-4.9.1s-3.6 0-4.9-.1c-1.2-.1-1.9-.3-2.4-.6-.6-.3-1-.7-1.4-1.4-.3-.5-.5-1.2-.6-2.4C2.2 15.6 2.2 15.2 2.2 12s0-3.6.1-4.9c.1-1.2.3-1.9.6-2.4.3-.6.7-1 1.4-1.4.5-.3 1.2-.5 2.4-.6C8.4 2.2 8.8 2.2 12 2.2m0-2.2C8.7 0 8.3 0 7 .1 5.6.1 4.5.3 3.7.6c-.9.3-1.6.7-2.3 1.4-.7.7-1.1 1.4-1.4 2.3-.3.8-.5 1.9-.6 3.3C-.1 8.3 0 8.7 0 12s-.1 3.7.1 5c.1 1.4.3 2.5.6 3.3.3.9.7 1.6 1.4 2.3.7.7 1.4 1.1 2.3 1.4.8.3 1.9.5 3.3.6 1.3.1 1.7.1 5 .1s3.7 0 5-.1c1.4-.1 2.5-.3 3.3-.6.9-.3 1.6-.7 2.3-1.4.7-.7 1.1-1.4 1.4-2.3.3-.8.5-1.9.6-3.3.1-1.3.1-1.7.1-5s0-3.7-.1-5c-.1-1.4-.3-2.5-.6-3.3-.3-.9-.7-1.6-1.4-2.3-.7-.7-1.4-1.1-2.3-1.4-.8-.3-1.9-.5-3.3-.6C15.7-.1 15.3 0 12 0z"/>
  <path d="M12 5.8A6.2 6.2 0 0 0 5.8 12 6.2 6.2 0 0 0 12 18.2 6.2 6.2 0 0 0 18.2 12 6.2 6.2 0 0 0 12 5.8zm0 10.2a4 4 0 1 1 0-8 4 4 0 0 1 0 8zM18.4 4.6a1.4 1.4 0 1 1-2.8 0 1.4 1.4 0 0 1 2.8 0z"/>
</svg>